%TF.GenerationSoftware,KiCad,Pcbnew,7.0.10*%
%TF.CreationDate,2024-02-06T00:10:35-05:00*%
%TF.ProjectId,hole_test,686f6c65-5f74-4657-9374-2e6b69636164,rev?*%
%TF.SameCoordinates,Original*%
%TF.FileFunction,Legend,Top*%
%TF.FilePolarity,Positive*%
%FSLAX46Y46*%
G04 Gerber Fmt 4.6, Leading zero omitted, Abs format (unit mm)*
G04 Created by KiCad (PCBNEW 7.0.10) date 2024-02-06 00:10:35*
%MOMM*%
%LPD*%
G01*
G04 APERTURE LIST*
%ADD10C,0.150000*%
%ADD11C,0.120000*%
G04 APERTURE END LIST*
D10*
X100314285Y-75424819D02*
X100314285Y-76139104D01*
X100314285Y-76139104D02*
X100266666Y-76281961D01*
X100266666Y-76281961D02*
X100171428Y-76377200D01*
X100171428Y-76377200D02*
X100028571Y-76424819D01*
X100028571Y-76424819D02*
X99933333Y-76424819D01*
X101314285Y-76424819D02*
X100742857Y-76424819D01*
X101028571Y-76424819D02*
X101028571Y-75424819D01*
X101028571Y-75424819D02*
X100933333Y-75567676D01*
X100933333Y-75567676D02*
X100838095Y-75662914D01*
X100838095Y-75662914D02*
X100742857Y-75710533D01*
X102266666Y-76424819D02*
X101695238Y-76424819D01*
X101980952Y-76424819D02*
X101980952Y-75424819D01*
X101980952Y-75424819D02*
X101885714Y-75567676D01*
X101885714Y-75567676D02*
X101790476Y-75662914D01*
X101790476Y-75662914D02*
X101695238Y-75710533D01*
X102647619Y-75520057D02*
X102695238Y-75472438D01*
X102695238Y-75472438D02*
X102790476Y-75424819D01*
X102790476Y-75424819D02*
X103028571Y-75424819D01*
X103028571Y-75424819D02*
X103123809Y-75472438D01*
X103123809Y-75472438D02*
X103171428Y-75520057D01*
X103171428Y-75520057D02*
X103219047Y-75615295D01*
X103219047Y-75615295D02*
X103219047Y-75710533D01*
X103219047Y-75710533D02*
X103171428Y-75853390D01*
X103171428Y-75853390D02*
X102600000Y-76424819D01*
X102600000Y-76424819D02*
X103219047Y-76424819D01*
X95234285Y-75424819D02*
X95234285Y-76139104D01*
X95234285Y-76139104D02*
X95186666Y-76281961D01*
X95186666Y-76281961D02*
X95091428Y-76377200D01*
X95091428Y-76377200D02*
X94948571Y-76424819D01*
X94948571Y-76424819D02*
X94853333Y-76424819D01*
X96234285Y-76424819D02*
X95662857Y-76424819D01*
X95948571Y-76424819D02*
X95948571Y-75424819D01*
X95948571Y-75424819D02*
X95853333Y-75567676D01*
X95853333Y-75567676D02*
X95758095Y-75662914D01*
X95758095Y-75662914D02*
X95662857Y-75710533D01*
X97186666Y-76424819D02*
X96615238Y-76424819D01*
X96900952Y-76424819D02*
X96900952Y-75424819D01*
X96900952Y-75424819D02*
X96805714Y-75567676D01*
X96805714Y-75567676D02*
X96710476Y-75662914D01*
X96710476Y-75662914D02*
X96615238Y-75710533D01*
X98139047Y-76424819D02*
X97567619Y-76424819D01*
X97853333Y-76424819D02*
X97853333Y-75424819D01*
X97853333Y-75424819D02*
X97758095Y-75567676D01*
X97758095Y-75567676D02*
X97662857Y-75662914D01*
X97662857Y-75662914D02*
X97567619Y-75710533D01*
X90154285Y-75424819D02*
X90154285Y-76139104D01*
X90154285Y-76139104D02*
X90106666Y-76281961D01*
X90106666Y-76281961D02*
X90011428Y-76377200D01*
X90011428Y-76377200D02*
X89868571Y-76424819D01*
X89868571Y-76424819D02*
X89773333Y-76424819D01*
X91154285Y-76424819D02*
X90582857Y-76424819D01*
X90868571Y-76424819D02*
X90868571Y-75424819D01*
X90868571Y-75424819D02*
X90773333Y-75567676D01*
X90773333Y-75567676D02*
X90678095Y-75662914D01*
X90678095Y-75662914D02*
X90582857Y-75710533D01*
X92106666Y-76424819D02*
X91535238Y-76424819D01*
X91820952Y-76424819D02*
X91820952Y-75424819D01*
X91820952Y-75424819D02*
X91725714Y-75567676D01*
X91725714Y-75567676D02*
X91630476Y-75662914D01*
X91630476Y-75662914D02*
X91535238Y-75710533D01*
X92725714Y-75424819D02*
X92820952Y-75424819D01*
X92820952Y-75424819D02*
X92916190Y-75472438D01*
X92916190Y-75472438D02*
X92963809Y-75520057D01*
X92963809Y-75520057D02*
X93011428Y-75615295D01*
X93011428Y-75615295D02*
X93059047Y-75805771D01*
X93059047Y-75805771D02*
X93059047Y-76043866D01*
X93059047Y-76043866D02*
X93011428Y-76234342D01*
X93011428Y-76234342D02*
X92963809Y-76329580D01*
X92963809Y-76329580D02*
X92916190Y-76377200D01*
X92916190Y-76377200D02*
X92820952Y-76424819D01*
X92820952Y-76424819D02*
X92725714Y-76424819D01*
X92725714Y-76424819D02*
X92630476Y-76377200D01*
X92630476Y-76377200D02*
X92582857Y-76329580D01*
X92582857Y-76329580D02*
X92535238Y-76234342D01*
X92535238Y-76234342D02*
X92487619Y-76043866D01*
X92487619Y-76043866D02*
X92487619Y-75805771D01*
X92487619Y-75805771D02*
X92535238Y-75615295D01*
X92535238Y-75615295D02*
X92582857Y-75520057D01*
X92582857Y-75520057D02*
X92630476Y-75472438D01*
X92630476Y-75472438D02*
X92725714Y-75424819D01*
X85074285Y-75424819D02*
X85074285Y-76139104D01*
X85074285Y-76139104D02*
X85026666Y-76281961D01*
X85026666Y-76281961D02*
X84931428Y-76377200D01*
X84931428Y-76377200D02*
X84788571Y-76424819D01*
X84788571Y-76424819D02*
X84693333Y-76424819D01*
X86074285Y-76424819D02*
X85502857Y-76424819D01*
X85788571Y-76424819D02*
X85788571Y-75424819D01*
X85788571Y-75424819D02*
X85693333Y-75567676D01*
X85693333Y-75567676D02*
X85598095Y-75662914D01*
X85598095Y-75662914D02*
X85502857Y-75710533D01*
X86693333Y-75424819D02*
X86788571Y-75424819D01*
X86788571Y-75424819D02*
X86883809Y-75472438D01*
X86883809Y-75472438D02*
X86931428Y-75520057D01*
X86931428Y-75520057D02*
X86979047Y-75615295D01*
X86979047Y-75615295D02*
X87026666Y-75805771D01*
X87026666Y-75805771D02*
X87026666Y-76043866D01*
X87026666Y-76043866D02*
X86979047Y-76234342D01*
X86979047Y-76234342D02*
X86931428Y-76329580D01*
X86931428Y-76329580D02*
X86883809Y-76377200D01*
X86883809Y-76377200D02*
X86788571Y-76424819D01*
X86788571Y-76424819D02*
X86693333Y-76424819D01*
X86693333Y-76424819D02*
X86598095Y-76377200D01*
X86598095Y-76377200D02*
X86550476Y-76329580D01*
X86550476Y-76329580D02*
X86502857Y-76234342D01*
X86502857Y-76234342D02*
X86455238Y-76043866D01*
X86455238Y-76043866D02*
X86455238Y-75805771D01*
X86455238Y-75805771D02*
X86502857Y-75615295D01*
X86502857Y-75615295D02*
X86550476Y-75520057D01*
X86550476Y-75520057D02*
X86598095Y-75472438D01*
X86598095Y-75472438D02*
X86693333Y-75424819D01*
X87502857Y-76424819D02*
X87693333Y-76424819D01*
X87693333Y-76424819D02*
X87788571Y-76377200D01*
X87788571Y-76377200D02*
X87836190Y-76329580D01*
X87836190Y-76329580D02*
X87931428Y-76186723D01*
X87931428Y-76186723D02*
X87979047Y-75996247D01*
X87979047Y-75996247D02*
X87979047Y-75615295D01*
X87979047Y-75615295D02*
X87931428Y-75520057D01*
X87931428Y-75520057D02*
X87883809Y-75472438D01*
X87883809Y-75472438D02*
X87788571Y-75424819D01*
X87788571Y-75424819D02*
X87598095Y-75424819D01*
X87598095Y-75424819D02*
X87502857Y-75472438D01*
X87502857Y-75472438D02*
X87455238Y-75520057D01*
X87455238Y-75520057D02*
X87407619Y-75615295D01*
X87407619Y-75615295D02*
X87407619Y-75853390D01*
X87407619Y-75853390D02*
X87455238Y-75948628D01*
X87455238Y-75948628D02*
X87502857Y-75996247D01*
X87502857Y-75996247D02*
X87598095Y-76043866D01*
X87598095Y-76043866D02*
X87788571Y-76043866D01*
X87788571Y-76043866D02*
X87883809Y-75996247D01*
X87883809Y-75996247D02*
X87931428Y-75948628D01*
X87931428Y-75948628D02*
X87979047Y-75853390D01*
X100314285Y-65264819D02*
X100314285Y-65979104D01*
X100314285Y-65979104D02*
X100266666Y-66121961D01*
X100266666Y-66121961D02*
X100171428Y-66217200D01*
X100171428Y-66217200D02*
X100028571Y-66264819D01*
X100028571Y-66264819D02*
X99933333Y-66264819D01*
X101314285Y-66264819D02*
X100742857Y-66264819D01*
X101028571Y-66264819D02*
X101028571Y-65264819D01*
X101028571Y-65264819D02*
X100933333Y-65407676D01*
X100933333Y-65407676D02*
X100838095Y-65502914D01*
X100838095Y-65502914D02*
X100742857Y-65550533D01*
X101933333Y-65264819D02*
X102028571Y-65264819D01*
X102028571Y-65264819D02*
X102123809Y-65312438D01*
X102123809Y-65312438D02*
X102171428Y-65360057D01*
X102171428Y-65360057D02*
X102219047Y-65455295D01*
X102219047Y-65455295D02*
X102266666Y-65645771D01*
X102266666Y-65645771D02*
X102266666Y-65883866D01*
X102266666Y-65883866D02*
X102219047Y-66074342D01*
X102219047Y-66074342D02*
X102171428Y-66169580D01*
X102171428Y-66169580D02*
X102123809Y-66217200D01*
X102123809Y-66217200D02*
X102028571Y-66264819D01*
X102028571Y-66264819D02*
X101933333Y-66264819D01*
X101933333Y-66264819D02*
X101838095Y-66217200D01*
X101838095Y-66217200D02*
X101790476Y-66169580D01*
X101790476Y-66169580D02*
X101742857Y-66074342D01*
X101742857Y-66074342D02*
X101695238Y-65883866D01*
X101695238Y-65883866D02*
X101695238Y-65645771D01*
X101695238Y-65645771D02*
X101742857Y-65455295D01*
X101742857Y-65455295D02*
X101790476Y-65360057D01*
X101790476Y-65360057D02*
X101838095Y-65312438D01*
X101838095Y-65312438D02*
X101933333Y-65264819D01*
X102600000Y-65264819D02*
X103266666Y-65264819D01*
X103266666Y-65264819D02*
X102838095Y-66264819D01*
X90154285Y-65264819D02*
X90154285Y-65979104D01*
X90154285Y-65979104D02*
X90106666Y-66121961D01*
X90106666Y-66121961D02*
X90011428Y-66217200D01*
X90011428Y-66217200D02*
X89868571Y-66264819D01*
X89868571Y-66264819D02*
X89773333Y-66264819D01*
X91154285Y-66264819D02*
X90582857Y-66264819D01*
X90868571Y-66264819D02*
X90868571Y-65264819D01*
X90868571Y-65264819D02*
X90773333Y-65407676D01*
X90773333Y-65407676D02*
X90678095Y-65502914D01*
X90678095Y-65502914D02*
X90582857Y-65550533D01*
X91773333Y-65264819D02*
X91868571Y-65264819D01*
X91868571Y-65264819D02*
X91963809Y-65312438D01*
X91963809Y-65312438D02*
X92011428Y-65360057D01*
X92011428Y-65360057D02*
X92059047Y-65455295D01*
X92059047Y-65455295D02*
X92106666Y-65645771D01*
X92106666Y-65645771D02*
X92106666Y-65883866D01*
X92106666Y-65883866D02*
X92059047Y-66074342D01*
X92059047Y-66074342D02*
X92011428Y-66169580D01*
X92011428Y-66169580D02*
X91963809Y-66217200D01*
X91963809Y-66217200D02*
X91868571Y-66264819D01*
X91868571Y-66264819D02*
X91773333Y-66264819D01*
X91773333Y-66264819D02*
X91678095Y-66217200D01*
X91678095Y-66217200D02*
X91630476Y-66169580D01*
X91630476Y-66169580D02*
X91582857Y-66074342D01*
X91582857Y-66074342D02*
X91535238Y-65883866D01*
X91535238Y-65883866D02*
X91535238Y-65645771D01*
X91535238Y-65645771D02*
X91582857Y-65455295D01*
X91582857Y-65455295D02*
X91630476Y-65360057D01*
X91630476Y-65360057D02*
X91678095Y-65312438D01*
X91678095Y-65312438D02*
X91773333Y-65264819D01*
X92440000Y-65264819D02*
X93059047Y-65264819D01*
X93059047Y-65264819D02*
X92725714Y-65645771D01*
X92725714Y-65645771D02*
X92868571Y-65645771D01*
X92868571Y-65645771D02*
X92963809Y-65693390D01*
X92963809Y-65693390D02*
X93011428Y-65741009D01*
X93011428Y-65741009D02*
X93059047Y-65836247D01*
X93059047Y-65836247D02*
X93059047Y-66074342D01*
X93059047Y-66074342D02*
X93011428Y-66169580D01*
X93011428Y-66169580D02*
X92963809Y-66217200D01*
X92963809Y-66217200D02*
X92868571Y-66264819D01*
X92868571Y-66264819D02*
X92582857Y-66264819D01*
X92582857Y-66264819D02*
X92487619Y-66217200D01*
X92487619Y-66217200D02*
X92440000Y-66169580D01*
X90154285Y-70344819D02*
X90154285Y-71059104D01*
X90154285Y-71059104D02*
X90106666Y-71201961D01*
X90106666Y-71201961D02*
X90011428Y-71297200D01*
X90011428Y-71297200D02*
X89868571Y-71344819D01*
X89868571Y-71344819D02*
X89773333Y-71344819D01*
X91154285Y-71344819D02*
X90582857Y-71344819D01*
X90868571Y-71344819D02*
X90868571Y-70344819D01*
X90868571Y-70344819D02*
X90773333Y-70487676D01*
X90773333Y-70487676D02*
X90678095Y-70582914D01*
X90678095Y-70582914D02*
X90582857Y-70630533D01*
X91773333Y-70344819D02*
X91868571Y-70344819D01*
X91868571Y-70344819D02*
X91963809Y-70392438D01*
X91963809Y-70392438D02*
X92011428Y-70440057D01*
X92011428Y-70440057D02*
X92059047Y-70535295D01*
X92059047Y-70535295D02*
X92106666Y-70725771D01*
X92106666Y-70725771D02*
X92106666Y-70963866D01*
X92106666Y-70963866D02*
X92059047Y-71154342D01*
X92059047Y-71154342D02*
X92011428Y-71249580D01*
X92011428Y-71249580D02*
X91963809Y-71297200D01*
X91963809Y-71297200D02*
X91868571Y-71344819D01*
X91868571Y-71344819D02*
X91773333Y-71344819D01*
X91773333Y-71344819D02*
X91678095Y-71297200D01*
X91678095Y-71297200D02*
X91630476Y-71249580D01*
X91630476Y-71249580D02*
X91582857Y-71154342D01*
X91582857Y-71154342D02*
X91535238Y-70963866D01*
X91535238Y-70963866D02*
X91535238Y-70725771D01*
X91535238Y-70725771D02*
X91582857Y-70535295D01*
X91582857Y-70535295D02*
X91630476Y-70440057D01*
X91630476Y-70440057D02*
X91678095Y-70392438D01*
X91678095Y-70392438D02*
X91773333Y-70344819D01*
X92963809Y-70678152D02*
X92963809Y-71344819D01*
X92725714Y-70297200D02*
X92487619Y-71011485D01*
X92487619Y-71011485D02*
X93106666Y-71011485D01*
X95234285Y-70344819D02*
X95234285Y-71059104D01*
X95234285Y-71059104D02*
X95186666Y-71201961D01*
X95186666Y-71201961D02*
X95091428Y-71297200D01*
X95091428Y-71297200D02*
X94948571Y-71344819D01*
X94948571Y-71344819D02*
X94853333Y-71344819D01*
X96234285Y-71344819D02*
X95662857Y-71344819D01*
X95948571Y-71344819D02*
X95948571Y-70344819D01*
X95948571Y-70344819D02*
X95853333Y-70487676D01*
X95853333Y-70487676D02*
X95758095Y-70582914D01*
X95758095Y-70582914D02*
X95662857Y-70630533D01*
X96853333Y-70344819D02*
X96948571Y-70344819D01*
X96948571Y-70344819D02*
X97043809Y-70392438D01*
X97043809Y-70392438D02*
X97091428Y-70440057D01*
X97091428Y-70440057D02*
X97139047Y-70535295D01*
X97139047Y-70535295D02*
X97186666Y-70725771D01*
X97186666Y-70725771D02*
X97186666Y-70963866D01*
X97186666Y-70963866D02*
X97139047Y-71154342D01*
X97139047Y-71154342D02*
X97091428Y-71249580D01*
X97091428Y-71249580D02*
X97043809Y-71297200D01*
X97043809Y-71297200D02*
X96948571Y-71344819D01*
X96948571Y-71344819D02*
X96853333Y-71344819D01*
X96853333Y-71344819D02*
X96758095Y-71297200D01*
X96758095Y-71297200D02*
X96710476Y-71249580D01*
X96710476Y-71249580D02*
X96662857Y-71154342D01*
X96662857Y-71154342D02*
X96615238Y-70963866D01*
X96615238Y-70963866D02*
X96615238Y-70725771D01*
X96615238Y-70725771D02*
X96662857Y-70535295D01*
X96662857Y-70535295D02*
X96710476Y-70440057D01*
X96710476Y-70440057D02*
X96758095Y-70392438D01*
X96758095Y-70392438D02*
X96853333Y-70344819D01*
X98043809Y-70344819D02*
X97853333Y-70344819D01*
X97853333Y-70344819D02*
X97758095Y-70392438D01*
X97758095Y-70392438D02*
X97710476Y-70440057D01*
X97710476Y-70440057D02*
X97615238Y-70582914D01*
X97615238Y-70582914D02*
X97567619Y-70773390D01*
X97567619Y-70773390D02*
X97567619Y-71154342D01*
X97567619Y-71154342D02*
X97615238Y-71249580D01*
X97615238Y-71249580D02*
X97662857Y-71297200D01*
X97662857Y-71297200D02*
X97758095Y-71344819D01*
X97758095Y-71344819D02*
X97948571Y-71344819D01*
X97948571Y-71344819D02*
X98043809Y-71297200D01*
X98043809Y-71297200D02*
X98091428Y-71249580D01*
X98091428Y-71249580D02*
X98139047Y-71154342D01*
X98139047Y-71154342D02*
X98139047Y-70916247D01*
X98139047Y-70916247D02*
X98091428Y-70821009D01*
X98091428Y-70821009D02*
X98043809Y-70773390D01*
X98043809Y-70773390D02*
X97948571Y-70725771D01*
X97948571Y-70725771D02*
X97758095Y-70725771D01*
X97758095Y-70725771D02*
X97662857Y-70773390D01*
X97662857Y-70773390D02*
X97615238Y-70821009D01*
X97615238Y-70821009D02*
X97567619Y-70916247D01*
X85074285Y-65264819D02*
X85074285Y-65979104D01*
X85074285Y-65979104D02*
X85026666Y-66121961D01*
X85026666Y-66121961D02*
X84931428Y-66217200D01*
X84931428Y-66217200D02*
X84788571Y-66264819D01*
X84788571Y-66264819D02*
X84693333Y-66264819D01*
X86074285Y-66264819D02*
X85502857Y-66264819D01*
X85788571Y-66264819D02*
X85788571Y-65264819D01*
X85788571Y-65264819D02*
X85693333Y-65407676D01*
X85693333Y-65407676D02*
X85598095Y-65502914D01*
X85598095Y-65502914D02*
X85502857Y-65550533D01*
X86693333Y-65264819D02*
X86788571Y-65264819D01*
X86788571Y-65264819D02*
X86883809Y-65312438D01*
X86883809Y-65312438D02*
X86931428Y-65360057D01*
X86931428Y-65360057D02*
X86979047Y-65455295D01*
X86979047Y-65455295D02*
X87026666Y-65645771D01*
X87026666Y-65645771D02*
X87026666Y-65883866D01*
X87026666Y-65883866D02*
X86979047Y-66074342D01*
X86979047Y-66074342D02*
X86931428Y-66169580D01*
X86931428Y-66169580D02*
X86883809Y-66217200D01*
X86883809Y-66217200D02*
X86788571Y-66264819D01*
X86788571Y-66264819D02*
X86693333Y-66264819D01*
X86693333Y-66264819D02*
X86598095Y-66217200D01*
X86598095Y-66217200D02*
X86550476Y-66169580D01*
X86550476Y-66169580D02*
X86502857Y-66074342D01*
X86502857Y-66074342D02*
X86455238Y-65883866D01*
X86455238Y-65883866D02*
X86455238Y-65645771D01*
X86455238Y-65645771D02*
X86502857Y-65455295D01*
X86502857Y-65455295D02*
X86550476Y-65360057D01*
X86550476Y-65360057D02*
X86598095Y-65312438D01*
X86598095Y-65312438D02*
X86693333Y-65264819D01*
X87979047Y-66264819D02*
X87407619Y-66264819D01*
X87693333Y-66264819D02*
X87693333Y-65264819D01*
X87693333Y-65264819D02*
X87598095Y-65407676D01*
X87598095Y-65407676D02*
X87502857Y-65502914D01*
X87502857Y-65502914D02*
X87407619Y-65550533D01*
X85074285Y-70344819D02*
X85074285Y-71059104D01*
X85074285Y-71059104D02*
X85026666Y-71201961D01*
X85026666Y-71201961D02*
X84931428Y-71297200D01*
X84931428Y-71297200D02*
X84788571Y-71344819D01*
X84788571Y-71344819D02*
X84693333Y-71344819D01*
X86074285Y-71344819D02*
X85502857Y-71344819D01*
X85788571Y-71344819D02*
X85788571Y-70344819D01*
X85788571Y-70344819D02*
X85693333Y-70487676D01*
X85693333Y-70487676D02*
X85598095Y-70582914D01*
X85598095Y-70582914D02*
X85502857Y-70630533D01*
X86693333Y-70344819D02*
X86788571Y-70344819D01*
X86788571Y-70344819D02*
X86883809Y-70392438D01*
X86883809Y-70392438D02*
X86931428Y-70440057D01*
X86931428Y-70440057D02*
X86979047Y-70535295D01*
X86979047Y-70535295D02*
X87026666Y-70725771D01*
X87026666Y-70725771D02*
X87026666Y-70963866D01*
X87026666Y-70963866D02*
X86979047Y-71154342D01*
X86979047Y-71154342D02*
X86931428Y-71249580D01*
X86931428Y-71249580D02*
X86883809Y-71297200D01*
X86883809Y-71297200D02*
X86788571Y-71344819D01*
X86788571Y-71344819D02*
X86693333Y-71344819D01*
X86693333Y-71344819D02*
X86598095Y-71297200D01*
X86598095Y-71297200D02*
X86550476Y-71249580D01*
X86550476Y-71249580D02*
X86502857Y-71154342D01*
X86502857Y-71154342D02*
X86455238Y-70963866D01*
X86455238Y-70963866D02*
X86455238Y-70725771D01*
X86455238Y-70725771D02*
X86502857Y-70535295D01*
X86502857Y-70535295D02*
X86550476Y-70440057D01*
X86550476Y-70440057D02*
X86598095Y-70392438D01*
X86598095Y-70392438D02*
X86693333Y-70344819D01*
X87407619Y-70440057D02*
X87455238Y-70392438D01*
X87455238Y-70392438D02*
X87550476Y-70344819D01*
X87550476Y-70344819D02*
X87788571Y-70344819D01*
X87788571Y-70344819D02*
X87883809Y-70392438D01*
X87883809Y-70392438D02*
X87931428Y-70440057D01*
X87931428Y-70440057D02*
X87979047Y-70535295D01*
X87979047Y-70535295D02*
X87979047Y-70630533D01*
X87979047Y-70630533D02*
X87931428Y-70773390D01*
X87931428Y-70773390D02*
X87360000Y-71344819D01*
X87360000Y-71344819D02*
X87979047Y-71344819D01*
X100314285Y-70344819D02*
X100314285Y-71059104D01*
X100314285Y-71059104D02*
X100266666Y-71201961D01*
X100266666Y-71201961D02*
X100171428Y-71297200D01*
X100171428Y-71297200D02*
X100028571Y-71344819D01*
X100028571Y-71344819D02*
X99933333Y-71344819D01*
X101314285Y-71344819D02*
X100742857Y-71344819D01*
X101028571Y-71344819D02*
X101028571Y-70344819D01*
X101028571Y-70344819D02*
X100933333Y-70487676D01*
X100933333Y-70487676D02*
X100838095Y-70582914D01*
X100838095Y-70582914D02*
X100742857Y-70630533D01*
X101933333Y-70344819D02*
X102028571Y-70344819D01*
X102028571Y-70344819D02*
X102123809Y-70392438D01*
X102123809Y-70392438D02*
X102171428Y-70440057D01*
X102171428Y-70440057D02*
X102219047Y-70535295D01*
X102219047Y-70535295D02*
X102266666Y-70725771D01*
X102266666Y-70725771D02*
X102266666Y-70963866D01*
X102266666Y-70963866D02*
X102219047Y-71154342D01*
X102219047Y-71154342D02*
X102171428Y-71249580D01*
X102171428Y-71249580D02*
X102123809Y-71297200D01*
X102123809Y-71297200D02*
X102028571Y-71344819D01*
X102028571Y-71344819D02*
X101933333Y-71344819D01*
X101933333Y-71344819D02*
X101838095Y-71297200D01*
X101838095Y-71297200D02*
X101790476Y-71249580D01*
X101790476Y-71249580D02*
X101742857Y-71154342D01*
X101742857Y-71154342D02*
X101695238Y-70963866D01*
X101695238Y-70963866D02*
X101695238Y-70725771D01*
X101695238Y-70725771D02*
X101742857Y-70535295D01*
X101742857Y-70535295D02*
X101790476Y-70440057D01*
X101790476Y-70440057D02*
X101838095Y-70392438D01*
X101838095Y-70392438D02*
X101933333Y-70344819D01*
X102838095Y-70773390D02*
X102742857Y-70725771D01*
X102742857Y-70725771D02*
X102695238Y-70678152D01*
X102695238Y-70678152D02*
X102647619Y-70582914D01*
X102647619Y-70582914D02*
X102647619Y-70535295D01*
X102647619Y-70535295D02*
X102695238Y-70440057D01*
X102695238Y-70440057D02*
X102742857Y-70392438D01*
X102742857Y-70392438D02*
X102838095Y-70344819D01*
X102838095Y-70344819D02*
X103028571Y-70344819D01*
X103028571Y-70344819D02*
X103123809Y-70392438D01*
X103123809Y-70392438D02*
X103171428Y-70440057D01*
X103171428Y-70440057D02*
X103219047Y-70535295D01*
X103219047Y-70535295D02*
X103219047Y-70582914D01*
X103219047Y-70582914D02*
X103171428Y-70678152D01*
X103171428Y-70678152D02*
X103123809Y-70725771D01*
X103123809Y-70725771D02*
X103028571Y-70773390D01*
X103028571Y-70773390D02*
X102838095Y-70773390D01*
X102838095Y-70773390D02*
X102742857Y-70821009D01*
X102742857Y-70821009D02*
X102695238Y-70868628D01*
X102695238Y-70868628D02*
X102647619Y-70963866D01*
X102647619Y-70963866D02*
X102647619Y-71154342D01*
X102647619Y-71154342D02*
X102695238Y-71249580D01*
X102695238Y-71249580D02*
X102742857Y-71297200D01*
X102742857Y-71297200D02*
X102838095Y-71344819D01*
X102838095Y-71344819D02*
X103028571Y-71344819D01*
X103028571Y-71344819D02*
X103123809Y-71297200D01*
X103123809Y-71297200D02*
X103171428Y-71249580D01*
X103171428Y-71249580D02*
X103219047Y-71154342D01*
X103219047Y-71154342D02*
X103219047Y-70963866D01*
X103219047Y-70963866D02*
X103171428Y-70868628D01*
X103171428Y-70868628D02*
X103123809Y-70821009D01*
X103123809Y-70821009D02*
X103028571Y-70773390D01*
X95234285Y-65264819D02*
X95234285Y-65979104D01*
X95234285Y-65979104D02*
X95186666Y-66121961D01*
X95186666Y-66121961D02*
X95091428Y-66217200D01*
X95091428Y-66217200D02*
X94948571Y-66264819D01*
X94948571Y-66264819D02*
X94853333Y-66264819D01*
X96234285Y-66264819D02*
X95662857Y-66264819D01*
X95948571Y-66264819D02*
X95948571Y-65264819D01*
X95948571Y-65264819D02*
X95853333Y-65407676D01*
X95853333Y-65407676D02*
X95758095Y-65502914D01*
X95758095Y-65502914D02*
X95662857Y-65550533D01*
X96853333Y-65264819D02*
X96948571Y-65264819D01*
X96948571Y-65264819D02*
X97043809Y-65312438D01*
X97043809Y-65312438D02*
X97091428Y-65360057D01*
X97091428Y-65360057D02*
X97139047Y-65455295D01*
X97139047Y-65455295D02*
X97186666Y-65645771D01*
X97186666Y-65645771D02*
X97186666Y-65883866D01*
X97186666Y-65883866D02*
X97139047Y-66074342D01*
X97139047Y-66074342D02*
X97091428Y-66169580D01*
X97091428Y-66169580D02*
X97043809Y-66217200D01*
X97043809Y-66217200D02*
X96948571Y-66264819D01*
X96948571Y-66264819D02*
X96853333Y-66264819D01*
X96853333Y-66264819D02*
X96758095Y-66217200D01*
X96758095Y-66217200D02*
X96710476Y-66169580D01*
X96710476Y-66169580D02*
X96662857Y-66074342D01*
X96662857Y-66074342D02*
X96615238Y-65883866D01*
X96615238Y-65883866D02*
X96615238Y-65645771D01*
X96615238Y-65645771D02*
X96662857Y-65455295D01*
X96662857Y-65455295D02*
X96710476Y-65360057D01*
X96710476Y-65360057D02*
X96758095Y-65312438D01*
X96758095Y-65312438D02*
X96853333Y-65264819D01*
X98091428Y-65264819D02*
X97615238Y-65264819D01*
X97615238Y-65264819D02*
X97567619Y-65741009D01*
X97567619Y-65741009D02*
X97615238Y-65693390D01*
X97615238Y-65693390D02*
X97710476Y-65645771D01*
X97710476Y-65645771D02*
X97948571Y-65645771D01*
X97948571Y-65645771D02*
X98043809Y-65693390D01*
X98043809Y-65693390D02*
X98091428Y-65741009D01*
X98091428Y-65741009D02*
X98139047Y-65836247D01*
X98139047Y-65836247D02*
X98139047Y-66074342D01*
X98139047Y-66074342D02*
X98091428Y-66169580D01*
X98091428Y-66169580D02*
X98043809Y-66217200D01*
X98043809Y-66217200D02*
X97948571Y-66264819D01*
X97948571Y-66264819D02*
X97710476Y-66264819D01*
X97710476Y-66264819D02*
X97615238Y-66217200D01*
X97615238Y-66217200D02*
X97567619Y-66169580D01*
D11*
%TO.C,J112*%
X100270000Y-79950000D02*
X100270000Y-80070000D01*
X100270000Y-80070000D02*
X102930000Y-80070000D01*
X102930000Y-79950000D02*
X102930000Y-80070000D01*
X102930000Y-77410000D02*
X102930000Y-78740000D01*
X101600000Y-77410000D02*
X102930000Y-77410000D01*
%TO.C,J111*%
X95190000Y-79950000D02*
X95190000Y-80070000D01*
X95190000Y-80070000D02*
X97850000Y-80070000D01*
X97850000Y-79950000D02*
X97850000Y-80070000D01*
X97850000Y-77410000D02*
X97850000Y-78740000D01*
X96520000Y-77410000D02*
X97850000Y-77410000D01*
%TO.C,J110*%
X90110000Y-79950000D02*
X90110000Y-80070000D01*
X90110000Y-80070000D02*
X92770000Y-80070000D01*
X92770000Y-79950000D02*
X92770000Y-80070000D01*
X92770000Y-77410000D02*
X92770000Y-78740000D01*
X91440000Y-77410000D02*
X92770000Y-77410000D01*
%TO.C,J109*%
X85030000Y-79950000D02*
X85030000Y-80070000D01*
X85030000Y-80070000D02*
X87690000Y-80070000D01*
X87690000Y-79950000D02*
X87690000Y-80070000D01*
X87690000Y-77410000D02*
X87690000Y-78740000D01*
X86360000Y-77410000D02*
X87690000Y-77410000D01*
%TO.C,J107*%
X100270000Y-69790000D02*
X100270000Y-69910000D01*
X100270000Y-69910000D02*
X102930000Y-69910000D01*
X101600000Y-67250000D02*
X102930000Y-67250000D01*
X102930000Y-67250000D02*
X102930000Y-68580000D01*
X102930000Y-69790000D02*
X102930000Y-69910000D01*
%TO.C,J103*%
X90110000Y-69790000D02*
X90110000Y-69910000D01*
X90110000Y-69910000D02*
X92770000Y-69910000D01*
X91440000Y-67250000D02*
X92770000Y-67250000D01*
X92770000Y-67250000D02*
X92770000Y-68580000D01*
X92770000Y-69790000D02*
X92770000Y-69910000D01*
%TO.C,J104*%
X90110000Y-74870000D02*
X90110000Y-74990000D01*
X90110000Y-74990000D02*
X92770000Y-74990000D01*
X91440000Y-72330000D02*
X92770000Y-72330000D01*
X92770000Y-72330000D02*
X92770000Y-73660000D01*
X92770000Y-74870000D02*
X92770000Y-74990000D01*
%TO.C,J106*%
X95190000Y-74870000D02*
X95190000Y-74990000D01*
X95190000Y-74990000D02*
X97850000Y-74990000D01*
X96520000Y-72330000D02*
X97850000Y-72330000D01*
X97850000Y-72330000D02*
X97850000Y-73660000D01*
X97850000Y-74870000D02*
X97850000Y-74990000D01*
%TO.C,J101*%
X85030000Y-69790000D02*
X85030000Y-69910000D01*
X85030000Y-69910000D02*
X87690000Y-69910000D01*
X86360000Y-67250000D02*
X87690000Y-67250000D01*
X87690000Y-67250000D02*
X87690000Y-68580000D01*
X87690000Y-69790000D02*
X87690000Y-69910000D01*
%TO.C,J102*%
X85030000Y-74870000D02*
X85030000Y-74990000D01*
X85030000Y-74990000D02*
X87690000Y-74990000D01*
X86360000Y-72330000D02*
X87690000Y-72330000D01*
X87690000Y-72330000D02*
X87690000Y-73660000D01*
X87690000Y-74870000D02*
X87690000Y-74990000D01*
%TO.C,J108*%
X100270000Y-74870000D02*
X100270000Y-74990000D01*
X100270000Y-74990000D02*
X102930000Y-74990000D01*
X101600000Y-72330000D02*
X102930000Y-72330000D01*
X102930000Y-72330000D02*
X102930000Y-73660000D01*
X102930000Y-74870000D02*
X102930000Y-74990000D01*
%TO.C,J105*%
X95190000Y-69790000D02*
X95190000Y-69910000D01*
X95190000Y-69910000D02*
X97850000Y-69910000D01*
X96520000Y-67250000D02*
X97850000Y-67250000D01*
X97850000Y-67250000D02*
X97850000Y-68580000D01*
X97850000Y-69790000D02*
X97850000Y-69910000D01*
%TD*%
M02*
